<!DOCTYPE svg PUBLIC "-//W3C//DTD SVG 1.1//EN" "http://www.w3.org/Graphics/SVG/1.1/DTD/svg11.dtd">
<!-- Uploaded to: SVG Repo, www.svgrepo.com, Transformed by: SVG Repo Mixer Tools -->
<svg width="800px" height="800px" viewBox="-2.4 -2.4 28.80 28.80" fill="none" xmlns="http://www.w3.org/2000/svg" transform="rotate(0)">
<g id="SVGRepo_bgCarrier" stroke-width="0" transform="translate(5.040000000000001,5.040000000000001), scale(0.58)">
<path transform="translate(-2.4, -2.4), scale(0.8999999999999999)" d="M16,30.926374154932358C19.610885758702018,30.335972320015493,20.66207098843647,25.836439723230683,23.25274729385812,23.25274729385812C25.850626989244812,20.661870893226954,30.29300984753722,19.606623443243237,30.966721042114145,16C31.695653137145364,12.097758796893753,29.705051750072865,7.869341424352811,26.584764503395597,5.415235496604401C23.68370604110116,3.1335530083517917,19.61054715430147,3.463060103538106,16,4.228673860868987C13.138359519306649,4.835482531943567,11.34818167639969,7.224834701876674,9.11886590944698,9.118865909446978C6.531599573053355,11.317012648490593,2.775335701156474,12.664083399035254,2.144894099410841,15.999999999999998C1.451956668354817,19.666606824944772,3.3733135895562807,23.353185816397495,5.911922064741811,26.088077935258184C8.54950856358954,28.92960099760628,12.173809512346192,31.55197962561451,16,30.926374154932358" fill="#7ed0ec" strokewidth="0"/>
</g>
<g id="SVGRepo_tracerCarrier" stroke-linecap="round" stroke-linejoin="round"/>
<g id="SVGRepo_iconCarrier"> <path d="M13.2418 3.62262H12.0001H10.8557M18.4571 3.62262H18.8668V3.62262C20.131 3.62262 21.1557 4.6474 21.1557 5.91153V17.0382C21.1557 19.0608 19.5161 20.7004 17.4935 20.7004H6.50674C4.48413 20.7004 2.84448 19.0608 2.84448 17.0382V5.91153C2.84448 4.6474 3.86926 3.62262 5.13339 3.62262V3.62262H5.54312" stroke="#3d3846" stroke-width="1.7" stroke-linecap="round"/> <path d="M9.01978 12.7782L9.76481 13.5233C10.1763 13.9348 10.8434 13.9348 11.2549 13.5233L14.9801 9.7981" stroke="#3d3846" stroke-width="1.7" stroke-linecap="round"/> <path d="M8.02637 2.84436V4.83113" stroke="#26a269" stroke-width="1.7" stroke-linecap="round"/> <path d="M15.9736 2.84436V4.83113" stroke="#26a269" stroke-width="1.7" stroke-linecap="round"/> </g>
</svg>